<svg width="500" height="500" viewBox="0 0 500 500" fill="none" xmlns="http://www.w3.org/2000/svg">
<path d="M340.647 208.234C342.579 211.802 346.311 214.026 350.369 214.027H412.329V324.291C412.329 341.681 398.232 355.778 380.842 355.779H233.091C227.098 355.779 221.228 357.489 216.173 360.709L174.127 387.494C162.875 394.662 148.326 393.962 137.815 385.744L111.581 365.234C103.948 359.266 99.4873 350.117 99.4873 340.428V219.423C100.146 219.545 100.825 219.613 101.519 219.613H152.305C156.205 219.612 159.818 217.556 161.81 214.202L179.498 184.41L204.562 244.791C206.049 248.374 209.305 250.915 213.142 251.487C216.978 252.058 220.834 250.578 223.301 247.585L250.964 214.027H301.615C305.532 214.026 309.157 211.953 311.143 208.576L326.606 182.287L340.647 208.234ZM195.473 278.136C186.217 278.136 178.714 285.639 178.714 294.895C178.714 304.151 186.217 311.654 195.473 311.655C204.729 311.655 212.232 304.151 212.232 294.895C212.232 285.639 204.729 278.136 195.473 278.136ZM315.326 278.136C306.07 278.136 298.566 285.639 298.566 294.895C298.566 304.151 306.07 311.655 315.326 311.655C324.582 311.654 332.085 304.151 332.085 294.895C332.085 285.639 324.582 278.136 315.326 278.136ZM380.842 116.07C398.232 116.07 412.329 130.167 412.329 147.557V191.917H356.956L336.729 154.542C334.831 151.036 331.192 148.822 327.205 148.751C323.218 148.68 319.501 150.763 317.479 154.199L295.293 191.917H245.75C242.552 191.917 239.516 193.303 237.421 195.705L237.221 195.941L217.933 219.338L191.462 155.566C189.858 151.703 186.21 149.075 182.038 148.778C177.866 148.48 173.883 150.564 171.747 154.16L146.012 197.504H101.519C100.825 197.504 100.146 197.571 99.4873 197.694V147.557C99.4873 130.167 113.585 116.07 130.975 116.07H380.842Z" fill="url(#paint0_linear_49_9)"/>
<defs>
<linearGradient id="paint0_linear_49_9" x1="254.246" y1="350.972" x2="254.246" y2="-312.281" gradientUnits="userSpaceOnUse">
<stop stop-color="#00ADCA"/>
<stop offset="1" stop-color="#5C6BC0"/>
</linearGradient>
</defs>
</svg>
